<svg data-v-fde0c5aa="" xmlns="http://www.w3.org/2000/svg" viewBox="0 0 300 300" class="icon"><!----><defs data-v-fde0c5aa=""><!----></defs><rect data-v-fde0c5aa="" fill="#130d40" x="0" y="0" width="300px" height="300px" class="logo-background-square"></rect><!----><defs data-v-fde0c5aa=""><linearGradient data-v-fde0c5aa="" gradientTransform="rotate(25)" id="c5a3c79b-2ac2-4b1b-a723-3237f1f11d01" x1="0%" y1="0%" x2="100%" y2="0%"><stop data-v-fde0c5aa="" offset="0%" stop-color="#FF3000" stop-opacity="1"></stop><stop data-v-fde0c5aa="" offset="100%" stop-color="#7C00FF" stop-opacity="1"></stop></linearGradient></defs><g data-v-fde0c5aa="" id="bcc236b9-5833-4d73-843b-7895843ffdae" fill="url(#c5a3c79b-2ac2-4b1b-a723-3237f1f11d01)" stroke="none" transform="matrix(2.2,0,0,2.2,40.000000000000064,56.04130020141601)"><path d="M60.082 20.987H39.918a5.85 5.85 0 0 0-5.851 5.85v27.44a5.852 5.852 0 0 0 5.851 5.852h.033v19.436c0 3.231 2.546 5.852 5.689 5.852h8.722c3.14 0 5.688-2.62 5.688-5.852V60.129h.032a5.852 5.852 0 0 0 5.851-5.852v-27.44a5.85 5.85 0 0 0-5.851-5.85z"></path><circle cx="50" cy="9.55" r="9.55"></circle><path d="M94.986 23.268H77.708a5.013 5.013 0 0 0-5.014 5.014v23.514a5.013 5.013 0 0 0 5.014 5.016h.028v16.654c0 2.77 2.182 5.014 4.873 5.014h7.475c2.691 0 4.874-2.244 4.874-5.014V56.811h.027A5.014 5.014 0 0 0 100 51.795V28.281a5.013 5.013 0 0 0-5.014-5.013z"></path><circle cx="86.347" cy="13.469" r="8.184"></circle><g><path d="M22.292 23.268H5.014A5.014 5.014 0 0 0 0 28.281v23.514a5.015 5.015 0 0 0 5.014 5.016h.028v16.654c0 2.77 2.184 5.014 4.874 5.014h7.474c2.692 0 4.874-2.244 4.874-5.014V56.811h.028a5.015 5.015 0 0 0 5.014-5.016V28.281a5.015 5.015 0 0 0-5.014-5.013z"></path><circle cx="13.653" cy="13.469" r="8.183"></circle></g></g><!----></svg>