<svg data-v-fde0c5aa="" xmlns="http://www.w3.org/2000/svg" viewBox="0 0 300 300" class="icon"><!----><defs data-v-fde0c5aa=""><!----></defs><rect data-v-fde0c5aa="" fill="#130d40" x="0" y="0" width="300px" height="300px" class="logo-background-square"></rect><!----><defs data-v-fde0c5aa=""><linearGradient data-v-fde0c5aa="" gradientTransform="rotate(25)" id="3c164aee-312a-4e39-b4e4-4a59c74d5bda" x1="0%" y1="0%" x2="100%" y2="0%"><stop data-v-fde0c5aa="" offset="0%" stop-color="#FF5D01" stop-opacity="1"></stop><stop data-v-fde0c5aa="" offset="100%" stop-color="#7D01FF" stop-opacity="1"></stop></linearGradient></defs><g data-v-fde0c5aa="" id="7c1b3430-582e-4f16-a143-0a2216e6181f" fill="url(#3c164aee-312a-4e39-b4e4-4a59c74d5bda)" stroke="none" transform="matrix(2.4444444444444446,0,0,2.4444444444444446,27.777777777777764,27.778430514865434)"><path d="M39.976 72.458c.007-.014.023-.019.03-.034.052-.111 1.006-2.15 2.091-5.301 1.89 2.219 4.712 3.665 7.903 3.665 3.653 0 6.848-1.869 8.677-4.661.213 9.532 8.25 17.232 18.142 17.232C86.844 83.359 95 75.459 95 65.75c0-1.757-.348-3.421-.845-5.023-.005-.115.009-.229-.022-.346-.357-1.331-8.012-29.262-19.737-37.914a1.569 1.569 0 0 0-.874-.877c-.127-.05-.317-.031-.456-.069-.88-.522-1.778-.945-2.7-1.223l-.748-.826c-1.056-1.512-2.521-2.459-4.243-2.744-2.073-.342-4.401.328-6.392 1.838-1.911 1.449-3.192 4.103-3.427 7.099-.043.545-.093 1.152-.146 1.803a440.641 440.641 0 0 0-.319 4.098c-1.337-1.271-3.12-2.063-5.09-2.063s-3.753.792-5.09 2.063a474.838 474.838 0 0 0-.319-4.098c-.054-.651-.103-1.257-.146-1.802-.235-2.997-1.516-5.651-3.427-7.1-1.991-1.51-4.322-2.18-6.392-1.838-1.722.284-3.187 1.232-4.243 2.744l-.751.828c-.902.275-1.786.692-2.653 1.216-.154.041-.362.02-.502.076-.44.174-.742.53-.889.943C14.563 30.92 6.81 57.127 5.518 61.744c-.048.198-.12.385-.161.586a2.228 2.228 0 0 1-.02.071c-.026.098-.011.194-.018.292C5.137 63.69 5 64.703 5 65.75c0 9.709 8.156 17.609 18.181 17.609 7.572 0 14.065-4.512 16.795-10.901zM50 67.636c-3.94 0-7.146-3.071-7.146-6.846S46.06 53.944 50 53.944s7.146 3.071 7.146 6.846S53.94 67.636 50 67.636zm26.819 12.571c-8.287 0-15.029-6.485-15.029-14.457s6.742-14.457 15.029-14.457c8.287 0 15.029 6.485 15.029 14.457s-6.742 14.457-15.029 14.457zm11.406-28.056c-3.13-2.468-7.066-4.01-11.406-4.01-7.498 0-13.946 4.422-16.722 10.712-.062-.303-.176-.585-.265-.878.067-.209.099-.432.071-.664l-2.061-17.258c.012-.077.046-.147.046-.228 0-7.124 4.314-11.12 6.885-12.867 3.064-2.082 5.784-2.599 7.033-2.489 6.807 4.287 12.802 17.496 16.419 27.682zM58.698 25.913c.164-2.082 1.003-3.935 2.19-4.835 1.305-.989 2.755-1.44 3.974-1.24.896.148 1.641.652 2.212 1.497.041.062.088.12.138.175l.495.546c-1.565.528-3.184 1.26-4.705 2.294a20.084 20.084 0 0 0-4.524 4.289c.024-.298.05-.63.074-.913.052-.654.103-1.264.146-1.813zM45.672 37.118c0-2.461 1.942-4.463 4.328-4.463s4.328 2.002 4.328 4.463c0 .062.004.125.011.187l1.857 15.552c-1.73-1.277-3.861-2.065-6.196-2.065s-4.467.788-6.196 2.065l1.857-15.552c.007-.062.011-.124.011-.187zM32.926 21.335c.572-.845 1.317-1.349 2.212-1.497 1.219-.201 2.669.25 3.974 1.239 1.187.9 2.026 2.753 2.19 4.836.043.549.094 1.159.147 1.814l.074.913a20.084 20.084 0 0 0-4.524-4.289c-1.521-1.033-3.14-1.766-4.705-2.294l.495-.546c.05-.055.096-.114.137-.176zm-4.682 3.129c1.275-.09 3.962.439 6.984 2.493 2.571 1.747 6.885 5.743 6.885 12.867 0 .081.034.15.046.228L40.098 57.31c-.028.232.004.455.071.664-.089.293-.204.575-.265.878-2.776-6.29-9.224-10.712-16.722-10.712-4.247 0-8.108 1.477-11.206 3.85 3.815-10.529 9.738-23.343 16.268-27.526zM8.152 65.75c0-.938.11-1.85.288-2.738.073-.272.164-.583.246-.877 1.681-6.217 7.513-10.842 14.495-10.842 8.287 0 15.029 6.485 15.029 14.457s-6.742 14.457-15.029 14.457c-8.287 0-15.029-6.485-15.029-14.457z"></path><path d="M30.071 63.943a1.573 1.573 0 0 0 2.228-.039 1.577 1.577 0 0 0-.039-2.228l-4.509-4.354a1.576 1.576 0 0 0-2.19 2.267l4.51 4.354zM30.876 71.256a1.575 1.575 0 0 0 1.095-2.709L21.207 58.154a1.576 1.576 0 0 0-2.19 2.267L29.78 70.813c.307.296.702.443 1.096.443zM81.387 57.322a1.576 1.576 0 0 0-2.19 2.267l4.509 4.354a1.573 1.573 0 0 0 2.228-.039 1.577 1.577 0 0 0-.039-2.228l-4.508-4.354zM74.844 58.154a1.576 1.576 0 0 0-2.19 2.267l10.763 10.392a1.575 1.575 0 0 0 2.189-2.267L74.844 58.154zM50 55.697c-2.878 0-5.219 2.285-5.219 5.093s2.341 5.093 5.219 5.093 5.219-2.285 5.219-5.093-2.341-5.093-5.219-5.093zm0 7.035c-1.14 0-2.067-.871-2.067-1.942s.927-1.942 2.067-1.942 2.067.871 2.067 1.942-.927 1.942-2.067 1.942z"></path></g><!----></svg>