<svg data-v-fde0c5aa="" xmlns="http://www.w3.org/2000/svg" viewBox="0 0 300 300" class="icon"><!----><defs data-v-fde0c5aa=""><!----></defs><rect data-v-fde0c5aa="" fill="#fafafa" x="0" y="0" width="300px" height="300px" class="logo-background-square"></rect><!----><defs data-v-fde0c5aa=""><linearGradient data-v-fde0c5aa="" gradientTransform="rotate(25)" id="c55c366a-1245-441d-be53-bbfc656efbc6" x1="0%" y1="0%" x2="100%" y2="0%"><stop data-v-fde0c5aa="" offset="0%" stop-color="#FF2400" stop-opacity="1"></stop><stop data-v-fde0c5aa="" offset="100%" stop-color="#6B08E8" stop-opacity="1"></stop></linearGradient></defs><g data-v-fde0c5aa="" id="964d5bf2-97dc-4562-b235-7979927e44e9" fill="url(#c55c366a-1245-441d-be53-bbfc656efbc6)" stroke="none" transform="matrix(2.5884622845505665,0,0,2.5884622845505665,34.0775980164707,33.79745708829769)"><path d="M30.9 50.5c.3 0 .5-.1.7-.2.9-.4 1.3-1.5.9-2.4-.3-.6-.9-1.1-1.6-1.1-.3 0-.5.1-.7.2-.4.2-.8.6-.9 1-.2.4-.2.9 0 1.4.2.7.9 1.1 1.6 1.1zm-.3-1.9l.2-.2h.1c.1 0 .2.1.3.2.1.2 0 .3-.2.4-.2.1-.3 0-.4-.2v-.2zM37.1 47.8c.3 0 .5-.1.7-.2.4-.2.8-.6.9-1 .2-.4.2-.9 0-1.4-.3-.6-.9-1.1-1.6-1.1-.3 0-.5.1-.7.2-.4.2-.8.6-.9 1-.2.4-.2.9 0 1.4.2.7.9 1.1 1.6 1.1zm-.3-1.9l.2-.2h.1c.1 0 .2.1.3.2v.2l-.2.2c-.2.1-.3 0-.4-.2-.1-.1 0-.2 0-.2zM43.3 45c.3 0 .5-.1.7-.2.9-.4 1.3-1.5.9-2.4-.3-.6-.9-1.1-1.6-1.1-.3 0-.5.1-.7.2-.4.2-.8.6-.9 1-.2.4-.2.9 0 1.4.2.7.8 1.1 1.6 1.1zm-.3-1.9l.2-.2h.1c.1 0 .2.1.3.2.1.2 0 .3-.2.4-.2.1-.3 0-.4-.2-.1-.1-.1-.2 0-.2zM49.4 38.6c-.3 0-.5.1-.7.2-.9.4-1.3 1.5-.9 2.4.3.6.9 1.1 1.6 1.1.3 0 .5-.1.7-.2.9-.4 1.3-1.5.9-2.4-.2-.6-.9-1.1-1.6-1.1zm.2 2.1c-.2.1-.3 0-.4-.2-.1-.2 0-.3.2-.4h.1c.1 0 .2.1.3.2 0 .2-.1.4-.2.4zM55.6 39.5c.3 0 .5-.1.7-.2.4-.2.8-.6.9-1 .2-.4.2-.9 0-1.4-.3-.6-.9-1.1-1.6-1.1-.3 0-.5.1-.7.2-.4.2-.8.6-.9 1-.2.4-.2.9 0 1.4.3.7.9 1.1 1.6 1.1zm-.3-1.9l.2-.2h.1c.1 0 .2.1.3.2v.2l-.2.2c-.2.1-.3 0-.4-.2v-.2zM61.8 36.7c.3 0 .5-.1.7-.2.9-.4 1.3-1.5.9-2.4-.3-.6-.9-1.1-1.6-1.1-.3 0-.5.1-.7.2-.4.2-.8.6-.9 1-.2.4-.2.9 0 1.4.2.7.9 1.1 1.6 1.1zm-.3-1.9l.2-.2h.1c.1 0 .2.1.3.2.1.2 0 .3-.2.4-.2.1-.3 0-.4-.2v-.2zM68 33.9c.3 0 .5-.1.7-.2.9-.4 1.3-1.5.9-2.4-.3-.6-.9-1.1-1.6-1.1-.3 0-.5.1-.7.2-.4.2-.8.6-.9 1-.2.4-.2.9 0 1.4.2.7.9 1.1 1.6 1.1zm-.2-2h.1c.1 0 .2.1.3.2.1.2 0 .3-.2.4-.2.1-.3 0-.4-.2 0-.2.1-.4.2-.4z"></path><path d="M87.1 24.5c-1.2-2.8-7.8-1.7-9.7-.9L57 32.7l-6.8-2 6.2-2.8-.6-1.4-7.8 3.6-12.6-3.7-5.5 2.4L43 39l-15.6 7L16 40.1l-6.8 3 3.8 3.8-1.4.7.6 1.3 1.9-.9 2.7 2.7-7.1 3.2.6 1.4 62.3-27.9 4.5 1.7 5.2-2.4-.6-1.4-4.7 2.1-2.5-1L78 25c.8-.4 2.7-.8 4.5-.8 2.1 0 3 .5 3.2.9.6 1.3-3 4.9-5 5.8L64 38.4l.2-.9-.7-.2-.7-.2-.2.6-.4 1.5-.4 1.8-6.3 24-5.4 2.4-1.5-20.5-.1-1.6-.1-1-.7.1-.7.1V46l-10 4.5c-1.6.7-3.3 1.1-5.1 1.2l-12.6.3v1.5l12.7-.4c1.9-.1 3.8-.5 5.6-1.3l9.5-4.2 1.6 22 8-3.6 6.8-25.8 17.7-7.9c2-.8 7.1-5.1 5.9-7.8zm-54.3 4.6l2.7-1.2L46 31l-1 .4.6 1.4 2.5-1.2 6.8 2-8.3 3.7-10.5-8.2-.9 1.2L45 38l-.5.2-11.7-9.1zM15.5 47.4l2.8-1.3-.6-1.3-3.3 1.5-2.6-2.7 4.2-1.9 9.7 5-7.5 3.3-2.7-2.6z"></path><path d="M50.316 64.643L48.91 43.29l1.496-.099 1.407 21.353zM64.963 45.238l-.622-1.365 14.555-6.643.623 1.365zM18.927 64.335l24.106-10.761.612 1.37-24.106 10.76zM37.356 20.185l.612 1.37-23.733 10.618-.612-1.37zM26.829 29.87l.612 1.37L3.708 41.858l-.612-1.369zM35.116 69.216l-.612-1.37 12.231-5.472.613 1.37zM2.288 65.908l21.268-9.515.613 1.369-21.268 9.516zM63.59 51.366l-.596-1.377 8.35-3.62.596 1.377z"></path></g><!----></svg>