<svg data-v-fde0c5aa="" xmlns="http://www.w3.org/2000/svg" viewBox="0 0 300 300" class="icon"><!----><defs data-v-fde0c5aa=""><!----></defs><rect data-v-fde0c5aa="" fill="#130d40" x="0" y="0" width="300px" height="300px" class="logo-background-square"></rect><!----><defs data-v-fde0c5aa=""><linearGradient data-v-fde0c5aa="" gradientTransform="rotate(25)" id="0cd155e8-bdea-46fa-9e10-0251802de494" x1="0%" y1="0%" x2="100%" y2="0%"><stop data-v-fde0c5aa="" offset="0%" stop-color="#FF4C00" stop-opacity="1"></stop><stop data-v-fde0c5aa="" offset="100%" stop-color="#5C00FF" stop-opacity="1"></stop></linearGradient></defs><g data-v-fde0c5aa="" id="c236f7e8-8134-41c1-b988-94388c268064" fill="url(#0cd155e8-bdea-46fa-9e10-0251802de494)" stroke="none" transform="matrix(2.4444444444444446,0,0,2.4444444444444446,27.777787102593308,27.777777777777764)"><path d="M77.146 5v14.541H17.095c-5.203 0-9.434 4.229-9.434 9.433v54.604C7.661 89.888 9.757 95 23.605 95v-9.167h59.3c5.203 0 9.434-4.235 9.434-9.434V14.152C92.339 9.095 88.238 5 77.146 5zm.335 18.295c5.123-.04 8.712-.973 11.082-2.472V54.15H52.548l-15.67-15.669V23.314h40.268c.105 0 .22-.009.335-.019zM36.878 54.15V42.825L48.203 54.15H36.878zm14.397 3.073l24.831 24.831H36.878V57.223h14.397zM31.938 33.542L21.71 23.314h10.229v10.228zm-20.502-4.568a5.666 5.666 0 0 1 5.659-5.659h.272l14.571 14.571V54.15h-8.333V36.612c-11.092 0-12.169-2.586-12.169-7.638zm12.169 28.249h8.333v24.831h-8.333V57.223zm59.3 24.831h-2.453L55.62 57.223h32.943V76.4a5.661 5.661 0 0 1-5.658 5.654z"></path><path d="M68.983 43.897l.027.241c.016.112.033.225.053.338.016.083.027.165.045.245.99 4.662 6.464 8.519 6.464 8.519s5.474-3.856 6.464-8.519c.018-.08.029-.162.045-.245.02-.113.037-.226.053-.338.01-.081.02-.161.027-.241a6.29 6.29 0 0 0 .029-.584 6.616 6.616 0 0 0-6.618-6.618 6.617 6.617 0 0 0-6.618 6.618c0 .196.012.392.029.584zm6.589-3.004a3.327 3.327 0 0 1 3.331 3.331 3.327 3.327 0 0 1-3.331 3.328 3.33 3.33 0 1 1 0-6.659z"></path></g><!----></svg>