<svg data-v-fde0c5aa="" xmlns="http://www.w3.org/2000/svg" viewBox="0 0 300 300" class="icon"><!----><defs data-v-fde0c5aa=""><!----></defs><rect data-v-fde0c5aa="" fill="#130d40" x="0" y="0" width="300px" height="300px" class="logo-background-square"></rect><!----><defs data-v-fde0c5aa=""><linearGradient data-v-fde0c5aa="" gradientTransform="rotate(25)" id="b51c7467-0105-47c8-b217-26bc44a08084" x1="0%" y1="0%" x2="100%" y2="0%"><stop data-v-fde0c5aa="" offset="0%" stop-color="#FF4800" stop-opacity="1"></stop><stop data-v-fde0c5aa="" offset="100%" stop-color="#9500FF" stop-opacity="1"></stop></linearGradient></defs><g data-v-fde0c5aa="" id="ca84c51f-5e01-451b-a20c-e85bfd1f2769" fill="url(#b51c7467-0105-47c8-b217-26bc44a08084)" stroke="none" transform="matrix(0.845178679666241,0,0,0.845178679666241,17.180175649011492,29.308481964380135)"><path d="M287 221.2V47c0-2.8-2.2-5-5-5H65c-2.8 0-5 2.2-5 5v29H32c-2.8 0-5 2.2-5 5v142c0 1 .3 2 .8 2.8 1.6 9.9 10.1 17.2 20.7 17.2H264c.7.4 1.5.6 2.3.6 11.6 0 21-9.4 21-21-.1-.5-.2-1-.3-1.4zm-249.5 1.1c0-.8-.2-1.6-.5-2.2V86h23v131.6c-.6 1-.9 2.1-.7 3.4.1.5.1 1.1.1 1.7 0 .5 0 .7-.1 1.4-.8 5.2-5.3 9-10.7 9h-.1c-6.1-.1-11-4.8-11-10.8zm231.2 11c-.5-.2-1.1-.3-1.7-.3H66.5c.8-1.4 1.5-2.9 2-4.4.9-.9 1.5-2.2 1.5-3.6V52h207v171c0 .4.1.8.1 1.1-.6 4.6-4 8.2-8.4 9.2zM262 71c0-2.8-2.2-5-5-5H89c-2.8 0-5 2.2-5 5v40c0 2.8 2.2 5 5 5h168c2.8 0 5-2.2 5-5V71zM94 76h157v30H94V76zm84 60c0-2.8-2.2-5-5-5H89c-2.8 0-5 2.2-5 5v57c0 2.8 2.2 5 5 5h84c2.8 0 5-2.2 5-5v-57zm-84 5h74v47H94v-47zm168-5c0 2.8-2.2 5-5 5h-70c-2.8 0-5-2.2-5-5s2.2-5 5-5h70c2.8 0 5 2.2 5 5zm0 28c0 2.8-2.2 5-5 5h-70c-2.8 0-5-2.2-5-5s2.2-5 5-5h70c2.8 0 5 2.2 5 5zm0 29c0 2.8-2.2 5-5 5h-70c-2.8 0-5-2.2-5-5s2.2-5 5-5h70c2.8 0 5 2.2 5 5zm0 21c0 2.8-2.2 5-5 5H89c-2.8 0-5-2.2-5-5s2.2-5 5-5h168c2.8 0 5 2.2 5 5z"></path></g><!----></svg>