<svg data-v-fde0c5aa="" xmlns="http://www.w3.org/2000/svg" viewBox="0 0 300 300" class="icon"><!----><defs data-v-fde0c5aa=""><!----></defs><rect data-v-fde0c5aa="" fill="#130d40" x="0" y="0" width="300px" height="300px" class="logo-background-square"></rect><!----><defs data-v-fde0c5aa=""><linearGradient data-v-fde0c5aa="" gradientTransform="rotate(25)" id="1025ece2-9243-46e7-9217-ede73ef6d83b" x1="0%" y1="0%" x2="100%" y2="0%"><stop data-v-fde0c5aa="" offset="0%" stop-color="#FF5400" stop-opacity="1"></stop><stop data-v-fde0c5aa="" offset="100%" stop-color="#6C00FF" stop-opacity="1"></stop></linearGradient></defs><g data-v-fde0c5aa="" id="61a32a90-bac1-464c-841a-0a5d1683fde6" fill="url(#1025ece2-9243-46e7-9217-ede73ef6d83b)" stroke="none" transform="matrix(2.2,0,0,2.2,39.999999999999986,39.999999999999986)"><path d="M61.575 65.698c-.543-.308-.078-4.091-.078-4.091l-4.09-.463c0-.23-.232-3.629-.232-3.629 3.246-1.082 3.91-7.468 3.91-7.468 2.06 1.134 3.397-3.913 3.397-3.913 2.439-7.016-1.211-6.593-1.211-6.593 1.16-5.251.604-13.001.604-13.001-1.621-14.212-21.117-11.614-24.25-6.833C30.917 21.208 35 35.583 35 35.583l1.16 4.321c-3.039 1.955-.928 4.325-.824 7.054.151 4.026 2.627 3.193 2.627 3.193.153 6.644 4.449 7.517 4.449 7.517.617 4.171 0 3.812 0 3.812h-3.704c.13 1.057-.231 3.83-.231 3.83-3.457 1.528-4.194 1.424-7.622 2.914-6.626 2.885-9.355 4.526-9.355 4.526a8.96 8.96 0 0 0-.74.371c5.977 7.548 14.808 12.725 24.868 13.9h8.745c10.166-1.188 19.077-6.463 25.056-14.141-2.025-1.757-5.267-3.381-9.823-4.551a68.003 68.003 0 0 1-8.031-2.631z"></path><path d="M50 0C22.386 0 0 22.386 0 50s22.386 50 50 50 50-22.386 50-50S77.614 0 50 0zm0 92C26.804 92 8 73.196 8 50S26.804 8 50 8s42 18.804 42 42-18.804 42-42 42z"></path></g><!----></svg>